<svg width="238" height="104" viewBox="0 0 238 104" fill="none" xmlns="http://www.w3.org/2000/svg">
<path d="M32 94C49.6731 94 64 79.6731 64 62C64 44.3269 49.6731 30 32 30C14.3269 30 0 44.3269 0 62C0 79.6731 14.3269 94 32 94Z" fill="#48DF6C"/>
<path d="M64 94C81.6731 94 96 79.6731 96 62C96 44.3269 81.6731 30 64 30C46.3269 30 32 44.3269 32 62C32 79.6731 46.3269 94 64 94Z" fill="#E3FD7F"/>
<path d="M114.24 102.962C113.493 102.962 112.853 102.855 112.32 102.642C111.786 102.482 111.52 102.215 111.52 101.842C111.52 101.468 111.653 101.148 111.92 100.882C112.186 100.668 112.506 100.455 112.88 100.242C113.733 99.9216 114.56 99.4416 115.36 98.8016C116.16 98.1616 116.906 97.095 117.6 95.6016C118.186 94.4282 118.64 92.9616 118.96 91.2016C119.28 89.495 119.52 87.655 119.68 85.6816C119.893 83.7616 120.026 81.895 120.08 80.0816C120.133 78.2682 120.16 76.7216 120.16 75.4416V57.4416C120.16 55.735 119.866 54.455 119.28 53.6016C118.746 52.7482 117.866 52.215 116.64 52.0016C116.32 51.9482 116.08 51.815 115.92 51.6016C115.813 51.335 115.76 51.0416 115.76 50.7216C115.76 50.0282 116.026 49.6282 116.56 49.5216C119.066 48.9882 121.28 48.2682 123.2 47.3616C125.12 46.4016 126.586 45.655 127.6 45.1216C127.92 44.9616 128.213 44.8282 128.48 44.7216C128.746 44.615 128.933 44.5616 129.04 44.5616C129.573 44.5616 129.84 44.8282 129.84 45.3616C129.733 46.9082 129.573 48.8282 129.36 51.1216C129.146 53.415 129.04 55.5216 129.04 57.4416L129.12 72.7216C129.12 74.375 129.066 76.3216 128.96 78.5616C128.853 80.7482 128.586 83.015 128.16 85.3616C127.786 87.7616 127.146 90.0282 126.24 92.1616C125.546 93.975 124.48 95.7082 123.04 97.3616C121.653 99.015 120.186 100.348 118.64 101.362C117.093 102.428 115.626 102.962 114.24 102.962ZM124.16 39.9216C122.613 39.9216 121.306 39.3882 120.24 38.3216C119.173 37.255 118.64 35.975 118.64 34.4816C118.64 32.8282 119.173 31.4682 120.24 30.4016C121.306 29.335 122.613 28.8016 124.16 28.8016C125.76 28.8016 127.093 29.335 128.16 30.4016C129.226 31.4682 129.76 32.8282 129.76 34.4816C129.76 35.975 129.226 37.255 128.16 38.3216C127.093 39.3882 125.76 39.9216 124.16 39.9216ZM153.114 81.1216C149.967 81.1216 147.141 80.4282 144.634 79.0416C142.127 77.6016 140.127 75.6282 138.634 73.1216C137.141 70.615 136.394 67.7882 136.394 64.6416C136.394 62.1882 136.874 59.8416 137.834 57.6016C138.794 55.3616 140.101 53.3616 141.754 51.6016C143.407 49.8416 145.354 48.455 147.594 47.4416C149.834 46.375 152.234 45.8416 154.794 45.8416C158.047 45.8416 160.954 46.615 163.514 48.1616C166.127 49.655 168.207 51.655 169.754 54.1616C171.301 56.6682 172.074 59.415 172.074 62.4016C172.074 65.7082 171.354 68.8016 169.914 71.6816C168.527 74.5082 166.421 76.8016 163.594 78.5616C160.821 80.2682 157.327 81.1216 153.114 81.1216ZM154.714 78.0016C156.047 78.0016 157.221 77.735 158.234 77.2016C159.301 76.6682 160.154 75.8416 160.794 74.7216C161.434 73.6016 161.861 72.135 162.074 70.3216C162.341 68.455 162.474 66.455 162.474 64.3216C162.474 61.495 162.101 58.935 161.354 56.6416C160.607 54.3482 159.567 52.5082 158.234 51.1216C156.901 49.735 155.327 49.0416 153.514 49.0416C152.501 49.0416 151.567 49.2282 150.714 49.6016C149.914 49.9216 149.167 50.4816 148.474 51.2816C147.514 52.4016 146.847 53.9482 146.474 55.9216C146.154 57.8416 145.994 60.0816 145.994 62.6416C145.994 65.2016 146.367 67.655 147.114 70.0016C147.914 72.3482 148.954 74.2682 150.234 75.7616C151.567 77.255 153.061 78.0016 154.714 78.0016ZM194.584 81.1216C193.144 81.1216 191.784 80.9882 190.504 80.7216C189.277 80.5082 188.131 80.2416 187.064 79.9216C186.104 79.655 185.251 79.4416 184.504 79.2816C183.811 79.0682 183.251 78.9616 182.824 78.9616C182.397 78.9616 181.971 79.0682 181.544 79.2816C181.117 79.495 180.744 79.735 180.424 80.0016C179.997 80.3216 179.651 80.4816 179.384 80.4816C179.011 80.4816 178.691 80.375 178.424 80.1616C178.157 80.0016 178.024 79.7882 178.024 79.5216C178.024 79.0416 178.157 78.135 178.424 76.8016C178.691 75.4682 178.797 73.9482 178.744 72.2416L178.584 35.6016C178.584 34.1616 178.317 32.935 177.784 31.9216C177.304 30.855 176.451 30.1616 175.224 29.8416C175.011 29.735 174.797 29.6016 174.584 29.4416C174.371 29.2282 174.264 28.935 174.264 28.5616C174.264 28.2416 174.344 28.0016 174.504 27.8416C174.717 27.6816 174.931 27.575 175.144 27.5216C176.157 27.3082 177.384 26.9616 178.824 26.4816C180.264 26.0016 181.651 25.5216 182.984 25.0416C184.317 24.5082 185.331 24.135 186.024 23.9216C186.451 23.7082 186.771 23.6016 186.984 23.6016C187.251 23.6016 187.437 23.6816 187.544 23.8416C187.651 24.0016 187.704 24.1882 187.704 24.4016C187.704 24.7216 187.651 25.495 187.544 26.7216C187.437 27.895 187.384 29.175 187.384 30.5616V47.4416C187.384 48.2416 187.437 48.855 187.544 49.2816C187.651 49.655 187.837 49.8416 188.104 49.8416C189.757 48.615 191.544 47.655 193.464 46.9616C195.384 46.2682 197.171 45.9216 198.824 45.9216C201.598 45.9216 204.078 46.6416 206.264 48.0816C208.452 49.5216 210.184 51.4682 211.464 53.9216C212.798 56.3216 213.464 59.095 213.464 62.2416C213.464 65.9216 212.664 69.2016 211.064 72.0816C209.464 74.9082 207.252 77.1216 204.424 78.7216C201.598 80.3216 198.317 81.1216 194.584 81.1216ZM196.104 78.0016C197.757 78.0016 199.144 77.3882 200.264 76.1616C201.438 74.8816 202.344 73.2016 202.984 71.1216C203.624 69.0416 203.944 66.7216 203.944 64.1616C203.944 62.0816 203.624 59.9482 202.984 57.7616C202.398 55.575 201.438 53.735 200.104 52.2416C198.771 50.7482 197.037 50.0016 194.904 50.0016C193.571 50.0016 192.211 50.215 190.824 50.6416C189.437 51.0682 188.291 51.6816 187.384 52.4816V69.0416C187.384 70.8016 187.784 72.375 188.584 73.7616C189.437 75.095 190.531 76.135 191.864 76.8816C193.197 77.6282 194.611 78.0016 196.104 78.0016ZM218.84 80.2416C218.414 80.2416 218.068 80.1616 217.8 80.0016C217.534 79.7882 217.4 79.5216 217.4 79.2016C217.4 78.775 217.56 78.455 217.88 78.2416C218.2 78.0282 218.574 77.8682 219 77.7616C220.28 77.4416 221.188 77.095 221.72 76.7216C222.308 76.3482 222.6 75.7082 222.6 74.8016V57.4416C222.6 55.735 222.334 54.455 221.8 53.6016C221.268 52.7482 220.36 52.215 219.08 52.0016C218.814 51.9482 218.6 51.815 218.44 51.6016C218.28 51.335 218.2 51.0416 218.2 50.7216C218.2 49.975 218.494 49.575 219.08 49.5216C221.64 48.9882 223.854 48.2682 225.72 47.3616C227.64 46.4016 229.108 45.655 230.12 45.1216C230.868 44.7482 231.348 44.5616 231.56 44.5616C232.148 44.5616 232.44 44.8282 232.44 45.3616C232.388 46.1082 232.28 47.1482 232.12 48.4816C231.96 49.7616 231.8 51.1482 231.64 52.6416C231.534 54.0816 231.48 55.4416 231.48 56.7216V74.7216C231.48 75.5216 231.774 76.135 232.36 76.5616C232.948 76.9882 233.88 77.3882 235.16 77.7616C235.588 77.9216 235.96 78.1082 236.28 78.3216C236.6 78.4816 236.76 78.775 236.76 79.2016C236.76 79.8416 236.308 80.1616 235.4 80.1616C234.388 80.1616 233.4 80.135 232.44 80.0816C231.534 80.0282 230.628 79.975 229.72 79.9216C228.868 79.8682 227.96 79.8416 227 79.8416C226.094 79.8416 225.214 79.8682 224.36 79.9216C223.508 79.975 222.628 80.0282 221.72 80.0816C220.868 80.1882 219.908 80.2416 218.84 80.2416ZM226.84 39.9216C225.294 39.9216 223.988 39.3882 222.92 38.3216C221.854 37.255 221.32 35.975 221.32 34.4816C221.32 32.8282 221.854 31.4682 222.92 30.4016C223.988 29.335 225.294 28.8016 226.84 28.8016C228.44 28.8016 229.774 29.335 230.84 30.4016C231.908 31.4682 232.44 32.8282 232.44 34.4816C232.44 35.975 231.908 37.255 230.84 38.3216C229.774 39.3882 228.44 39.9216 226.84 39.9216Z" fill="white"/>
</svg>
