<svg xmlns="http://www.w3.org/2000/svg" width="169" height="49" viewBox="0 0 169 49" fill="none"><rect y="19.7" width="9.59998" height="9.59999" fill="#9EA59E"></rect><rect x="28.7998" y="29.3" width="9.6" height="9.59999" transform="rotate(180 28.7998 29.3)" fill="#9EA59E"></rect><path opacity="0.4" d="M9.6001 19.7001L19.2001 10.1001V19.7001L9.6001 29.3001V19.7001Z" fill="#9EA59E"></path><path opacity="0.6" d="M19.2002 29.2999L9.60021 38.8999L9.60021 29.2999L19.2002 19.6999L19.2002 29.2999Z" fill="#9EA59E"></path><path opacity="0.8" d="M0 19.7L19.2 0.5V10.1L9.59998 19.7H0Z" fill="#9EA59E"></path><path opacity="0.8" d="M28.7998 29.3L9.59983 48.5L9.59983 38.9L19.1998 29.3L28.7998 29.3Z" fill="#9EA59E"></path><path d="M49.708 34.78C48.196 34.78 46.7306 34.5654 45.312 34.136C43.912 33.7067 42.8013 33.1374 41.98 32.428L43.24 29.6C44.0426 30.2347 45.0226 30.7574 46.18 31.168C47.356 31.56 48.532 31.756 49.708 31.756C51.164 31.756 52.2466 31.5227 52.956 31.056C53.684 30.5894 54.048 29.9734 54.048 29.208C54.048 28.648 53.8426 28.1907 53.432 27.836C53.04 27.4627 52.536 27.1734 51.92 26.968C51.304 26.7627 50.464 26.5294 49.4 26.268C47.9066 25.9134 46.6933 25.5587 45.76 25.204C44.8453 24.8494 44.052 24.2987 43.38 23.552C42.7266 22.7867 42.4 21.76 42.4 20.472C42.4 19.3894 42.6893 18.4094 43.268 17.532C43.8653 16.636 44.752 15.9267 45.928 15.404C47.1226 14.8814 48.5786 14.62 50.296 14.62C51.4906 14.62 52.6666 14.7694 53.824 15.068C54.9813 15.3667 55.98 15.796 56.82 16.356L55.672 19.184C54.8133 18.68 53.9173 18.2974 52.984 18.036C52.0506 17.7747 51.1453 17.644 50.268 17.644C48.8306 17.644 47.7573 17.8867 47.048 18.372C46.3573 18.8574 46.012 19.5014 46.012 20.304C46.012 20.864 46.208 21.3214 46.6 21.676C47.0106 22.0307 47.524 22.3107 48.14 22.516C48.756 22.7214 49.596 22.9547 50.66 23.216C52.116 23.552 53.3106 23.9067 54.244 24.28C55.1773 24.6347 55.9706 25.1854 56.624 25.932C57.296 26.6787 57.632 27.6867 57.632 28.956C57.632 30.0387 57.3333 31.0187 56.736 31.896C56.1573 32.7734 55.2706 33.4734 54.076 33.996C52.8813 34.5187 51.4253 34.78 49.708 34.78Z" fill="#9EA59E"></path><path d="M60.9053 19.548H64.4053V34.5H60.9053V19.548ZM62.6693 17.084C62.0347 17.084 61.5027 16.888 61.0733 16.496C60.644 16.0854 60.4293 15.5814 60.4293 14.984C60.4293 14.3867 60.644 13.892 61.0733 13.5C61.5027 13.0894 62.0347 12.884 62.6693 12.884C63.304 12.884 63.836 13.08 64.2653 13.472C64.6947 13.8454 64.9093 14.3214 64.9093 14.9C64.9093 15.516 64.6947 16.0387 64.2653 16.468C63.8547 16.8787 63.3227 17.084 62.6693 17.084Z" fill="#9EA59E"></path><path d="M73.6191 34.696C72.4058 34.696 71.2204 34.5374 70.0631 34.22C68.9058 33.9027 67.9818 33.5014 67.2911 33.016L68.6351 30.356C69.3071 30.804 70.1098 31.168 71.0431 31.448C71.9951 31.7094 72.9284 31.84 73.8431 31.84C75.9338 31.84 76.9791 31.2894 76.9791 30.188C76.9791 29.6654 76.7084 29.3014 76.1671 29.096C75.6444 28.8907 74.7951 28.6947 73.6191 28.508C72.3871 28.3214 71.3791 28.1067 70.5951 27.864C69.8298 27.6214 69.1578 27.2014 68.5791 26.604C68.0191 25.988 67.7391 25.1387 67.7391 24.056C67.7391 22.6374 68.3271 21.508 69.5031 20.668C70.6978 19.8094 72.3031 19.38 74.3191 19.38C75.3458 19.38 76.3724 19.5014 77.3991 19.744C78.4258 19.968 79.2658 20.276 79.9191 20.668L78.5751 23.328C77.3058 22.5814 75.8778 22.208 74.2911 22.208C73.2644 22.208 72.4804 22.3667 71.9391 22.684C71.4164 22.9827 71.1551 23.384 71.1551 23.888C71.1551 24.448 71.4351 24.8494 71.9951 25.092C72.5738 25.316 73.4604 25.5307 74.6551 25.736C75.8498 25.9227 76.8298 26.1374 77.5951 26.38C78.3604 26.6227 79.0138 27.0334 79.5551 27.612C80.1151 28.1907 80.3951 29.012 80.3951 30.076C80.3951 31.476 79.7884 32.596 78.5751 33.436C77.3618 34.276 75.7098 34.696 73.6191 34.696Z" fill="#9EA59E"></path><path d="M97.1358 19.548L90.1358 35.704C89.4825 37.328 88.6891 38.4667 87.7558 39.12C86.8225 39.792 85.6931 40.128 84.3678 40.128C83.6211 40.128 82.8838 40.0067 82.1558 39.764C81.4278 39.5214 80.8305 39.1854 80.3638 38.756L81.7638 36.18C82.0998 36.4974 82.4918 36.7494 82.9398 36.936C83.4065 37.1227 83.8731 37.216 84.3398 37.216C84.9558 37.216 85.4598 37.0574 85.8518 36.74C86.2625 36.4227 86.6358 35.8907 86.9718 35.144L87.2238 34.556L80.6998 19.548H84.3398L89.0438 30.608L93.7758 19.548H97.1358Z" fill="#9EA59E"></path><path d="M107.611 19.38C109.067 19.38 110.365 19.6974 111.503 20.332C112.661 20.9667 113.566 21.8627 114.219 23.02C114.873 24.1774 115.199 25.512 115.199 27.024C115.199 28.536 114.873 29.88 114.219 31.056C113.566 32.2134 112.661 33.1094 111.503 33.744C110.365 34.3787 109.067 34.696 107.611 34.696C105.595 34.696 103.999 34.024 102.823 32.68V39.932H99.3233V19.548H102.655V21.508C103.234 20.7987 103.943 20.2667 104.783 19.912C105.642 19.5574 106.585 19.38 107.611 19.38ZM107.219 31.7C108.507 31.7 109.562 31.2707 110.383 30.412C111.223 29.5534 111.643 28.424 111.643 27.024C111.643 25.624 111.223 24.4947 110.383 23.636C109.562 22.7774 108.507 22.348 107.219 22.348C106.379 22.348 105.623 22.544 104.951 22.936C104.279 23.3094 103.747 23.8507 103.355 24.56C102.963 25.2694 102.767 26.0907 102.767 27.024C102.767 27.9574 102.963 28.7787 103.355 29.488C103.747 30.1974 104.279 30.748 104.951 31.14C105.623 31.5134 106.379 31.7 107.219 31.7Z" fill="#9EA59E"></path><path d="M127.003 19.38C128.888 19.38 130.4 19.9307 131.539 21.032C132.677 22.1334 133.247 23.7667 133.247 25.932V34.5H129.747V26.38C129.747 25.0734 129.439 24.0934 128.823 23.44C128.207 22.768 127.329 22.432 126.191 22.432C124.903 22.432 123.885 22.824 123.139 23.608C122.392 24.3734 122.019 25.484 122.019 26.94V34.5H118.519V13.724H122.019V21.284C122.597 20.668 123.307 20.2014 124.147 19.884C125.005 19.548 125.957 19.38 127.003 19.38Z" fill="#9EA59E"></path><path d="M152.163 19.548V34.5H148.831V32.596C148.271 33.268 147.571 33.7907 146.731 34.164C145.891 34.5187 144.985 34.696 144.015 34.696C142.017 34.696 140.44 34.1454 139.283 33.044C138.144 31.924 137.575 30.272 137.575 28.088V19.548H141.075V27.612C141.075 28.956 141.373 29.964 141.971 30.636C142.587 31.2894 143.455 31.616 144.575 31.616C145.825 31.616 146.815 31.2334 147.543 30.468C148.289 29.684 148.663 28.564 148.663 27.108V19.548H152.163Z" fill="#9EA59E"></path><path d="M161.365 34.696C160.152 34.696 158.966 34.5374 157.809 34.22C156.652 33.9027 155.728 33.5014 155.037 33.016L156.381 30.356C157.053 30.804 157.856 31.168 158.789 31.448C159.741 31.7094 160.674 31.84 161.589 31.84C163.68 31.84 164.725 31.2894 164.725 30.188C164.725 29.6654 164.454 29.3014 163.913 29.096C163.39 28.8907 162.541 28.6947 161.365 28.508C160.133 28.3214 159.125 28.1067 158.341 27.864C157.576 27.6214 156.904 27.2014 156.325 26.604C155.765 25.988 155.485 25.1387 155.485 24.056C155.485 22.6374 156.073 21.508 157.249 20.668C158.444 19.8094 160.049 19.38 162.065 19.38C163.092 19.38 164.118 19.5014 165.145 19.744C166.172 19.968 167.012 20.276 167.665 20.668L166.321 23.328C165.052 22.5814 163.624 22.208 162.037 22.208C161.01 22.208 160.226 22.3667 159.685 22.684C159.162 22.9827 158.901 23.384 158.901 23.888C158.901 24.448 159.181 24.8494 159.741 25.092C160.32 25.316 161.206 25.5307 162.401 25.736C163.596 25.9227 164.576 26.1374 165.341 26.38C166.106 26.6227 166.76 27.0334 167.301 27.612C167.861 28.1907 168.141 29.012 168.141 30.076C168.141 31.476 167.534 32.596 166.321 33.436C165.108 34.276 163.456 34.696 161.365 34.696Z" fill="#9EA59E"></path></svg>