<svg xmlns="http://www.w3.org/2000/svg" width="202" height="49" viewBox="0 0 202 49" fill="none"><path fill-rule="evenodd" clip-rule="evenodd" d="M0 24.5C13.9836 24.5 22 16.4836 22 2.5C22 16.4836 30.0164 24.5 44 24.5C30.0164 24.5 22 32.5164 22 46.5C22 32.5164 13.9836 24.5 0 24.5Z" fill="#9EA59E"></path><path d="M52.6899 34.4091L60.3699 13.4091H64.6899L72.3699 34.4091H68.2899L66.6099 29.5491H58.4199L56.7099 34.4091H52.6899ZM59.4699 26.5491H65.5599L62.4999 17.8191L59.4699 26.5491Z" fill="#9EA59E"></path><path d="M80.072 34.7691C78.552 34.7691 77.212 34.4391 76.052 33.7791C74.892 33.1191 73.972 32.1991 73.292 31.0191C72.632 29.8391 72.302 28.4891 72.302 26.9691C72.302 25.4491 72.632 24.0991 73.292 22.9191C73.972 21.7391 74.892 20.8191 76.052 20.1591C77.212 19.4991 78.552 19.1691 80.072 19.1691C81.972 19.1691 83.572 19.6691 84.872 20.6691C86.172 21.6491 87.002 23.0091 87.362 24.7491H83.312C83.112 24.0291 82.712 23.4691 82.112 23.0691C81.532 22.6491 80.842 22.4391 80.042 22.4391C78.982 22.4391 78.082 22.8391 77.342 23.6391C76.602 24.4391 76.232 25.5491 76.232 26.9691C76.232 28.3891 76.602 29.4991 77.342 30.2991C78.082 31.0991 78.982 31.4991 80.042 31.4991C80.842 31.4991 81.532 31.2991 82.112 30.8991C82.712 30.4991 83.112 29.9291 83.312 29.1891H87.362C87.002 30.8691 86.172 32.2191 84.872 33.2391C83.572 34.2591 81.972 34.7691 80.072 34.7691Z" fill="#9EA59E"></path><path d="M89.2703 34.4091V19.5291H92.6603L92.9903 21.5391C93.4703 20.8191 94.1003 20.2491 94.8803 19.8291C95.6803 19.3891 96.6003 19.1691 97.6403 19.1691C99.9403 19.1691 101.57 20.0591 102.53 21.8391C103.07 21.0191 103.79 20.3691 104.69 19.8891C105.61 19.4091 106.61 19.1691 107.69 19.1691C109.63 19.1691 111.12 19.7491 112.16 20.9091C113.2 22.0691 113.72 23.7691 113.72 26.0091V34.4091H109.88V26.3691C109.88 25.0891 109.63 24.1091 109.13 23.4291C108.65 22.7491 107.9 22.4091 106.88 22.4091C105.84 22.4091 105 22.7891 104.36 23.5491C103.74 24.3091 103.43 25.3691 103.43 26.7291V34.4091H99.5903V26.3691C99.5903 25.0891 99.3403 24.1091 98.8403 23.4291C98.3403 22.7491 97.5703 22.4091 96.5303 22.4091C95.5103 22.4091 94.6803 22.7891 94.0403 23.5491C93.4203 24.3091 93.1103 25.3691 93.1103 26.7291V34.4091H89.2703Z" fill="#9EA59E"></path><path d="M123.096 34.7691C121.596 34.7691 120.266 34.4491 119.106 33.8091C117.946 33.1691 117.036 32.2691 116.376 31.1091C115.716 29.9491 115.386 28.6091 115.386 27.0891C115.386 25.5491 115.706 24.1791 116.346 22.9791C117.006 21.7791 117.906 20.8491 119.046 20.1891C120.206 19.5091 121.566 19.1691 123.126 19.1691C124.586 19.1691 125.876 19.4891 126.996 20.1291C128.116 20.7691 128.986 21.6491 129.606 22.7691C130.246 23.8691 130.566 25.0991 130.566 26.4591C130.566 26.6791 130.556 26.9091 130.536 27.1491C130.536 27.3891 130.526 27.6391 130.506 27.8991H119.196C119.276 29.0591 119.676 29.9691 120.396 30.6291C121.136 31.2891 122.026 31.6191 123.066 31.6191C123.846 31.6191 124.496 31.4491 125.016 31.1091C125.556 30.7491 125.956 30.2891 126.216 29.7291H130.116C129.836 30.6691 129.366 31.5291 128.706 32.3091C128.066 33.0691 127.266 33.6691 126.306 34.1091C125.366 34.5491 124.296 34.7691 123.096 34.7691ZM123.126 22.2891C122.186 22.2891 121.356 22.5591 120.636 23.0991C119.916 23.6191 119.456 24.4191 119.256 25.4991H126.666C126.606 24.5191 126.246 23.7391 125.586 23.1591C124.926 22.5791 124.106 22.2891 123.126 22.2891Z" fill="#9EA59E"></path><path d="M147.544 34.7691C145.424 34.7691 143.604 34.3191 142.084 33.4191C140.564 32.4991 139.394 31.2291 138.574 29.6091C137.754 27.9691 137.344 26.0791 137.344 23.9391C137.344 21.7991 137.754 19.9091 138.574 18.2691C139.394 16.6291 140.564 15.3491 142.084 14.4291C143.604 13.5091 145.424 13.0491 147.544 13.0491C150.064 13.0491 152.124 13.6791 153.724 14.9391C155.344 16.1791 156.354 17.9291 156.754 20.1891H152.524C152.264 19.0491 151.704 18.1591 150.844 17.5191C150.004 16.8591 148.884 16.5291 147.484 16.5291C145.544 16.5291 144.024 17.1891 142.924 18.5091C141.824 19.8291 141.274 21.6391 141.274 23.9391C141.274 26.2391 141.824 28.0491 142.924 29.3691C144.024 30.6691 145.544 31.3191 147.484 31.3191C148.884 31.3191 150.004 31.0191 150.844 30.4191C151.704 29.7991 152.264 28.9491 152.524 27.8691H156.754C156.354 30.0291 155.344 31.7191 153.724 32.9391C152.124 34.1591 150.064 34.7691 147.544 34.7691Z" fill="#9EA59E"></path><path d="M165.703 34.7691C164.263 34.7691 162.963 34.4391 161.803 33.7791C160.663 33.1191 159.753 32.2091 159.073 31.0491C158.413 29.8691 158.083 28.5091 158.083 26.9691C158.083 25.4291 158.423 24.0791 159.103 22.9191C159.783 21.7391 160.693 20.8191 161.833 20.1591C162.993 19.4991 164.293 19.1691 165.733 19.1691C167.153 19.1691 168.433 19.4991 169.573 20.1591C170.733 20.8191 171.643 21.7391 172.303 22.9191C172.983 24.0791 173.323 25.4291 173.323 26.9691C173.323 28.5091 172.983 29.8691 172.303 31.0491C171.643 32.2091 170.733 33.1191 169.573 33.7791C168.413 34.4391 167.123 34.7691 165.703 34.7691ZM165.703 31.4391C166.703 31.4391 167.573 31.0691 168.313 30.3291C169.053 29.5691 169.423 28.4491 169.423 26.9691C169.423 25.4891 169.053 24.3791 168.313 23.6391C167.573 22.8791 166.713 22.4991 165.733 22.4991C164.713 22.4991 163.833 22.8791 163.093 23.6391C162.373 24.3791 162.013 25.4891 162.013 26.9691C162.013 28.4491 162.373 29.5691 163.093 30.3291C163.833 31.0691 164.703 31.4391 165.703 31.4391Z" fill="#9EA59E"></path><path d="M175.257 34.4091V19.5291H178.677L179.037 22.3191C179.577 21.3591 180.307 20.5991 181.227 20.0391C182.167 19.4591 183.267 19.1691 184.527 19.1691V23.2191H183.447C182.607 23.2191 181.857 23.3491 181.197 23.6091C180.537 23.8691 180.017 24.3191 179.637 24.9591C179.277 25.5991 179.097 26.4891 179.097 27.6291V34.4091H175.257Z" fill="#9EA59E"></path><path d="M185.651 41.0091V19.5291H189.071L189.491 21.6591C189.971 20.9991 190.601 20.4191 191.381 19.9191C192.181 19.4191 193.211 19.1691 194.471 19.1691C195.871 19.1691 197.121 19.5091 198.221 20.1891C199.321 20.8691 200.191 21.7991 200.831 22.9791C201.471 24.1591 201.791 25.4991 201.791 26.9991C201.791 28.4991 201.471 29.8391 200.831 31.0191C200.191 32.1791 199.321 33.0991 198.221 33.7791C197.121 34.4391 195.871 34.7691 194.471 34.7691C193.351 34.7691 192.371 34.5591 191.531 34.1391C190.691 33.7191 190.011 33.1291 189.491 32.3691V41.0091H185.651ZM193.661 31.4091C194.881 31.4091 195.891 30.9991 196.691 30.1791C197.491 29.3591 197.891 28.2991 197.891 26.9991C197.891 25.6991 197.491 24.6291 196.691 23.7891C195.891 22.9491 194.881 22.5291 193.661 22.5291C192.421 22.5291 191.401 22.9491 190.601 23.7891C189.821 24.6091 189.431 25.6691 189.431 26.9691C189.431 28.2691 189.821 29.3391 190.601 30.1791C191.401 30.9991 192.421 31.4091 193.661 31.4091Z" fill="#9EA59E"></path></svg>