<svg xmlns="http://www.w3.org/2000/svg" width="160" height="49" viewBox="0 0 160 49" fill="none"><path opacity="0.8" d="M22 2.5C9.84969 2.5 0 12.3497 0 24.5C0 36.6503 9.84969 46.5 22 46.5C32.901 46.5 41.9502 38.5716 43.6958 28.1667H43.5379C41.9098 34.4925 36.1674 39.1667 29.3333 39.1667C21.2332 39.1667 14.6667 32.6002 14.6667 24.5C14.6667 16.3998 21.2332 9.83333 29.3333 9.83333C36.1674 9.83333 41.9098 14.5075 43.5379 20.8333H43.6958C41.9502 10.4284 32.901 2.5 22 2.5Z" fill="#9EA59E"></path><path d="M0 24.5C0 12.3497 9.84974 2.5 22 2.5C32.901 2.5 41.9502 10.4284 43.6958 20.8333H28.8713C27.2431 14.5075 21.5007 9.83333 14.6667 9.83333C6.56649 9.83333 0 16.3998 0 24.5Z" fill="#9EA59E"></path><path d="M0 24.5C0 36.6503 9.84974 46.5 22 46.5C32.901 46.5 41.9502 38.5716 43.6958 28.1667H28.8713C27.2431 34.4925 21.5007 39.1667 14.6667 39.1667C6.56649 39.1667 0 32.6002 0 24.5Z" fill="#9EA59E"></path><path d="M75.4391 21.0071C74.8127 16.4829 71.3326 13.8579 66.8184 13.8579C61.4988 13.8579 57.4917 17.7358 57.4917 24.3181C57.4917 30.8906 61.4491 34.7784 66.8184 34.7784C71.6607 34.7784 74.8724 31.6463 75.4391 27.7585L71.7204 27.7386C71.2531 30.125 69.3042 31.4673 66.8681 31.4673C63.567 31.4673 61.2005 28.9914 61.2005 24.3181C61.2005 19.7244 63.5471 17.169 66.8781 17.169C69.3539 17.169 71.2928 18.571 71.7204 21.0071H75.4391Z" fill="#9EA59E"></path><path d="M83.0531 34.8082C85.4494 34.8082 86.8812 33.6846 87.5375 32.4019H87.6568V34.5H91.117V24.2784C91.117 20.2414 87.8259 19.0284 84.9125 19.0284C81.7009 19.0284 79.2349 20.4602 78.4395 23.2443L81.8003 23.7215C82.1582 22.6775 83.1724 21.7826 84.9324 21.7826C86.6028 21.7826 87.5176 22.6377 87.5176 24.1392V24.1988C87.5176 25.2329 86.4338 25.2826 83.7392 25.571C80.7761 25.8892 77.9423 26.7741 77.9423 30.2144C77.9423 33.2173 80.1398 34.8082 83.0531 34.8082ZM83.9878 32.1633C82.4864 32.1633 81.4125 31.4772 81.4125 30.1548C81.4125 28.7727 82.6156 28.196 84.2264 27.9673C85.171 27.838 87.0602 27.5994 87.5276 27.2215V29.0213C87.5276 30.7215 86.1554 32.1633 83.9878 32.1633Z" fill="#9EA59E"></path><path d="M102.363 19.2272H99.35V15.5681H95.7506V19.2272H93.583V22.0113H95.7506V30.5028C95.7307 33.3764 97.8187 34.7883 100.523 34.7088C101.547 34.6789 102.253 34.4801 102.641 34.3508L102.035 31.5369C101.836 31.5866 101.428 31.6761 100.981 31.6761C100.076 31.6761 99.35 31.3579 99.35 29.9062V22.0113H102.363V19.2272Z" fill="#9EA59E"></path><path d="M109.768 34.8082C112.164 34.8082 113.596 33.6846 114.252 32.4019H114.372V34.5H117.832V24.2784C117.832 20.2414 114.541 19.0284 111.627 19.0284C108.416 19.0284 105.95 20.4602 105.154 23.2443L108.515 23.7215C108.873 22.6775 109.887 21.7826 111.647 21.7826C113.318 21.7826 114.232 22.6377 114.232 24.1392V24.1988C114.232 25.2329 113.149 25.2826 110.454 25.571C107.491 25.8892 104.657 26.7741 104.657 30.2144C104.657 33.2173 106.855 34.8082 109.768 34.8082ZM110.703 32.1633C109.201 32.1633 108.127 31.4772 108.127 30.1548C108.127 28.7727 109.33 28.196 110.941 27.9673C111.886 27.838 113.775 27.5994 114.242 27.2215V29.0213C114.242 30.7215 112.87 32.1633 110.703 32.1633Z" fill="#9EA59E"></path><path d="M125.051 14.1363H121.451V34.5H125.051V14.1363Z" fill="#9EA59E"></path><path d="M135.414 34.7983C139.888 34.7983 142.732 31.6463 142.732 26.9233C142.732 22.1903 139.888 19.0284 135.414 19.0284C130.939 19.0284 128.096 22.1903 128.096 26.9233C128.096 31.6463 130.939 34.7983 135.414 34.7983ZM135.434 31.9147C132.958 31.9147 131.745 29.7073 131.745 26.9133C131.745 24.1193 132.958 21.8821 135.434 21.8821C137.87 21.8821 139.083 24.1193 139.083 26.9133C139.083 29.7073 137.87 31.9147 135.434 31.9147Z" fill="#9EA59E"></path><path d="M152.429 40.5454C156.556 40.5454 159.598 38.6562 159.598 34.7485V19.2272H156.048V21.7528H155.85C155.303 20.6491 154.159 19.0284 151.465 19.0284C147.935 19.0284 145.161 21.7926 145.161 26.8139C145.161 31.7954 147.935 34.2812 151.455 34.2812C154.07 34.2812 155.293 32.8792 155.85 31.7556H156.029V34.6491C156.029 36.8963 154.537 37.821 152.489 37.821C150.321 37.821 149.367 36.7968 148.929 35.9019L145.688 36.6875C146.344 38.8252 148.541 40.5454 152.429 40.5454ZM152.459 31.4573C150.083 31.4573 148.83 29.6079 148.83 26.794C148.83 24.0198 150.063 21.9815 152.459 21.9815C154.776 21.9815 156.048 23.9005 156.048 26.794C156.048 29.7073 154.756 31.4573 152.459 31.4573Z" fill="#9EA59E"></path></svg>