<svg xmlns="http://www.w3.org/2000/svg" width="166" height="49" viewBox="0 0 166 49" fill="none"><circle cx="22" cy="24.75" r="20.5" stroke="#9EA59E" stroke-width="3"></circle><path d="M30.1318 32.8817C25.9924 37.0211 21.3029 39.7233 17.1265 40.7972C12.9124 41.8808 9.51577 41.2571 7.50436 39.2456C5.49296 37.2342 4.86917 33.8376 5.95279 29.6235C7.02672 25.4472 9.72893 20.7576 13.8683 16.6182C18.0077 12.4788 22.6972 9.77662 26.8736 8.7027C31.0877 7.61907 34.4843 8.24286 36.4957 10.2543C38.5071 12.2657 39.1309 15.6623 38.0473 19.8764C36.9734 24.0528 34.2712 28.7423 30.1318 32.8817Z" stroke="#9EA59E" stroke-width="3"></path><path d="M30.1314 16.6182C34.2708 20.7576 36.973 25.4471 38.047 29.6235C39.1306 33.8376 38.5068 37.2342 36.4954 39.2456C34.484 41.257 31.0874 41.8808 26.8733 40.7972C22.6969 39.7233 18.0074 37.0211 13.868 32.8817C9.72859 28.7423 7.02638 24.0528 5.95245 19.8764C4.86883 15.6623 5.49262 12.2657 7.50402 10.2543C9.51543 8.24285 12.9121 7.61906 17.1262 8.70269C21.3025 9.77661 25.992 12.4788 30.1314 16.6182Z" stroke="#9EA59E" stroke-width="3"></path><path d="M62.85 34.7401C67.56 34.7401 70.74 32.2801 70.74 28.3501C70.74 20.0401 59.7 23.5801 59.7 19.2001C59.7 17.9701 60.81 17.1301 62.58 17.1301C64.59 17.1301 65.85 18.2101 66 19.8601H70.29C70.17 15.8701 67.11 13.2601 62.58 13.2601C58.32 13.2601 55.32 15.7201 55.32 19.2001C55.32 27.4501 66.21 24.3001 66.21 28.4101C66.21 30.0001 64.86 30.8401 62.85 30.8401C60.63 30.8401 59.22 29.4901 59.04 27.3601H54.72C54.9 31.8301 58.08 34.7401 62.85 34.7401Z" fill="#9EA59E"></path><path d="M71.7602 40.6201H75.9302V33.1501C76.7402 34.1701 78.2102 34.7401 79.9202 34.7401C84.2702 34.7401 87.2102 31.6501 87.2102 26.9401C87.2102 22.2301 84.5102 19.1401 80.2802 19.1401C78.3302 19.1401 76.8302 19.8601 75.9302 21.0301V19.3801H71.7602V40.6201ZM79.4102 31.1401C77.1602 31.1401 75.6902 29.4601 75.6902 26.9401C75.6902 24.3901 77.1602 22.7101 79.4102 22.7101C81.6002 22.7101 83.1002 24.3901 83.1002 26.9401C83.1002 29.4601 81.6002 31.1401 79.4102 31.1401Z" fill="#9EA59E"></path><path d="M88.2192 34.5001H92.3892V26.2201C92.3892 24.2701 93.6792 22.8601 95.5092 22.8601C97.2492 22.8601 98.4492 24.1801 98.4492 26.0101V34.5001H102.619V25.0801C102.619 21.6001 100.399 19.1401 97.0092 19.1401C94.9092 19.1401 93.2592 20.0101 92.3892 21.4801V12.8101H88.2192V34.5001Z" fill="#9EA59E"></path><path d="M114.285 29.3701C113.954 30.6601 112.845 31.3201 111.165 31.3201C109.065 31.3201 107.715 30.0001 107.415 27.8701H118.274C118.304 27.5401 118.335 27.0901 118.335 26.5201C118.335 23.0701 116.205 19.1401 110.865 19.1401C105.735 19.1401 103.395 23.0701 103.395 26.9101C103.395 30.7201 106.035 34.7401 111.165 34.7401C114.885 34.7401 117.765 32.6401 118.365 29.3701H114.285ZM110.865 22.2001C112.875 22.2001 114.045 23.5501 114.165 25.2301H107.475C107.835 23.1301 108.975 22.2001 110.865 22.2001Z" fill="#9EA59E"></path><path d="M129.271 22.8601V19.3801H127.119C125.289 19.3801 124.149 20.0101 123.339 21.9001V19.3801H119.139V34.5001H123.339V27.1501C123.339 24.5701 124.269 22.8601 126.339 22.8601H129.271Z" fill="#9EA59E"></path><path d="M143.671 19.3801H139.471V27.6601C139.471 29.5801 138.181 31.0201 136.351 31.0201C134.641 31.0201 133.441 29.7001 133.441 27.8701V19.3801H129.271V28.8001C129.271 32.2501 131.491 34.7401 134.881 34.7401C136.951 34.7401 138.631 33.8401 139.471 32.4001V34.5001H143.671V19.3801Z" fill="#9EA59E"></path><path d="M145.471 34.5001H149.641V12.8101H145.471V34.5001Z" fill="#9EA59E"></path><path d="M161.546 29.3701C161.216 30.6601 160.106 31.3201 158.426 31.3201C156.326 31.3201 154.976 30.0001 154.676 27.8701H165.536C165.566 27.5401 165.596 27.0901 165.596 26.5201C165.596 23.0701 163.466 19.1401 158.126 19.1401C152.996 19.1401 150.656 23.0701 150.656 26.9101C150.656 30.7201 153.296 34.7401 158.426 34.7401C162.146 34.7401 165.026 32.6401 165.626 29.3701H161.546ZM158.126 22.2001C160.136 22.2001 161.306 23.5501 161.426 25.2301H154.736C155.096 23.1301 156.236 22.2001 158.126 22.2001Z" fill="#9EA59E"></path></svg>