<svg xmlns="http://www.w3.org/2000/svg" width="165" height="49" viewBox="0 0 165 49" fill="none"><path d="M15.7141 33.9284C24.3929 33.9284 31.4284 26.8929 31.4284 18.2141C31.4284 17.2306 31.3381 16.2681 31.1652 15.3345C30.2316 15.1617 29.2692 15.0713 28.2856 15.0713C19.6068 15.0713 12.5713 22.1068 12.5713 30.7856C12.5713 31.7692 12.6617 32.7317 12.8345 33.6652C13.7681 33.8381 14.7306 33.9284 15.7141 33.9284Z" fill="#9EA59E"></path><path opacity="0.8" fill-rule="evenodd" clip-rule="evenodd" d="M12.8347 33.6653C5.53118 32.3127 0 25.9095 0 18.2143C0 9.53553 7.03553 2.5 15.7143 2.5C23.4095 2.5 29.8128 8.03118 31.1653 15.3347C30.2318 15.1618 29.2693 15.0714 28.2857 15.0714C19.607 15.0714 12.5714 22.107 12.5714 30.7857C12.5714 31.7693 12.6618 32.7318 12.8347 33.6653Z" fill="#9EA59E"></path><path opacity="0.6" fill-rule="evenodd" clip-rule="evenodd" d="M15.7146 33.9284C24.3933 33.9284 31.4289 26.8928 31.4289 18.2141C31.4289 17.2305 31.3385 16.268 31.1656 15.3345C38.4691 16.687 44.0003 23.0903 44.0003 30.7855C44.0003 39.4643 36.9648 46.4998 28.286 46.4998C20.5908 46.4998 14.1875 40.9686 12.835 33.6651C13.7685 33.838 14.731 33.9284 15.7146 33.9284Z" fill="#9EA59E"></path><path d="M67.55 34.7401C72.92 34.7401 76.79 31.7101 77.18 27.2101H72.68C72.32 29.3701 70.25 30.8401 67.55 30.8401C64.16 30.8401 61.55 28.5001 61.55 24.0001C61.55 19.5001 64.16 17.1301 67.55 17.1301C70.19 17.1301 72.26 18.6001 72.56 20.7901H77.27C76.7 16.2601 72.83 13.2601 67.55 13.2601C61.94 13.2601 57.02 16.9201 57.02 24.0001C57.02 31.0801 61.85 34.7401 67.55 34.7401Z" fill="#9EA59E"></path><path d="M85.5313 19.1401C81.3913 19.1401 78.9313 21.5701 78.7513 24.6001H82.4713C82.5313 23.3401 83.4613 22.2001 85.2913 22.2001C87.0013 22.2001 87.9913 23.0701 87.9913 24.3301C87.9913 24.9601 87.6013 25.4401 86.8513 25.4401H84.3013C81.0013 25.4401 78.7813 27.2401 78.7813 30.2101C78.7813 32.7901 80.7913 34.7401 83.7313 34.7401C85.8013 34.7401 87.4813 33.8101 87.9913 32.4001V34.5001H92.1313V24.7801C92.1313 21.3601 89.3413 19.1401 85.5313 19.1401ZM84.7813 31.7101C83.6113 31.7101 82.7713 31.0201 82.7713 30.0301C82.7713 28.8601 83.6713 28.0801 84.9313 28.0801H87.9913V28.2901C87.9913 30.2101 86.8213 31.7101 84.7813 31.7101Z" fill="#9EA59E"></path><path d="M94.9337 40.6201H99.1037V33.1501C99.9137 34.1701 101.384 34.7401 103.094 34.7401C107.444 34.7401 110.384 31.6501 110.384 26.9401C110.384 22.2301 107.684 19.1401 103.454 19.1401C101.504 19.1401 100.004 19.8601 99.1037 21.0301V19.3801H94.9337V40.6201ZM102.584 31.1401C100.334 31.1401 98.8637 29.4601 98.8637 26.9401C98.8637 24.3901 100.334 22.7101 102.584 22.7101C104.774 22.7101 106.274 24.3901 106.274 26.9401C106.274 29.4601 104.774 31.1401 102.584 31.1401Z" fill="#9EA59E"></path><path d="M117.726 34.7401C121.266 34.7401 123.606 32.8501 123.606 29.9701C123.606 23.1301 115.326 26.6401 115.326 23.5501C115.326 22.5901 116.136 22.0801 117.306 22.0801C118.446 22.0801 119.616 22.7701 119.796 24.0601H123.426C123.276 21.0901 120.816 19.1401 117.186 19.1401C114.096 19.1401 111.786 21.0301 111.786 23.7001C111.786 30.0601 119.916 27.0301 119.916 30.1201C119.916 30.9601 119.016 31.5901 117.726 31.5901C116.166 31.5901 115.116 30.7501 114.966 29.4001H111.366C111.516 32.6701 114.036 34.7401 117.726 34.7401Z" fill="#9EA59E"></path><path d="M140.076 19.3801H135.876V27.6601C135.876 29.5801 134.586 31.0201 132.756 31.0201C131.046 31.0201 129.846 29.7001 129.846 27.8701V19.3801H125.676V28.8001C125.676 32.2501 127.896 34.7401 131.286 34.7401C133.356 34.7401 135.036 33.8401 135.876 32.4001V34.5001H140.076V19.3801Z" fill="#9EA59E"></path><path d="M143.077 34.5001H147.247V12.8101H143.077V34.5001Z" fill="#9EA59E"></path><path d="M160.352 29.3701C160.022 30.6601 158.912 31.3201 157.232 31.3201C155.132 31.3201 153.782 30.0001 153.482 27.8701H164.342C164.372 27.5401 164.402 27.0901 164.402 26.5201C164.402 23.0701 162.272 19.1401 156.932 19.1401C151.802 19.1401 149.462 23.0701 149.462 26.9101C149.462 30.7201 152.102 34.7401 157.232 34.7401C160.952 34.7401 163.832 32.6401 164.432 29.3701H160.352ZM156.932 22.2001C158.942 22.2001 160.112 23.5501 160.232 25.2301H153.542C153.902 23.1301 155.042 22.2001 156.932 22.2001Z" fill="#9EA59E"></path></svg>